<?xml version="1.0" encoding="UTF-8"?>
<svg id="Layer_2" data-name="Layer 2" xmlns="http://www.w3.org/2000/svg" viewBox="0 0 69.13 69.13">
  <defs>
    <style>
      .cls-1 {
        fill: #474745;
      }
    </style>
  </defs>
  <g id="Reader">
    <g>
      <path class="cls-1" d="M34.57,1c18.51,0,33.57,15.06,33.57,33.57s-15.06,33.57-33.57,33.57S1,53.07,1,34.57,16.06,1,34.57,1M34.57,0C15.48,0,0,15.48,0,34.57s15.48,34.57,34.57,34.57,34.57-15.48,34.57-34.57S53.66,0,34.57,0h0Z"/>
      <g>
        <path class="cls-1" d="M46.37,27.41c0,1.92-.49,3.73-1.35,5.31l-2.35-1.81c.5-1.06.78-2.25.78-3.5,0-4.54-3.67-8.21-8.21-8.21s-8.16,3.62-8.21,8.12h3.35l-5.17,5.4-5.18-5.4h4.09c.05-6.11,5.01-11.04,11.12-11.04s11.13,4.98,11.13,11.13Z"/>
        <path class="cls-1" d="M34.61,32.78c-9.18,0-16.62,3.63-16.62,8.11s7.44,8.11,16.62,8.11,16.62-3.63,16.62-8.11-7.44-8.11-16.62-8.11ZM34.61,42.61c-2.33,0-4.23-.77-4.23-1.72s1.9-1.73,4.23-1.73,4.23.77,4.23,1.73-1.89,1.72-4.23,1.72Z"/>
      </g>
    </g>
  </g>
</svg>