<?xml version="1.0" encoding="UTF-8"?>
<svg id="Layer_2" data-name="Layer 2" xmlns="http://www.w3.org/2000/svg" viewBox="0 0 151.15 383.7">
  <defs>
    <style>
      .cls-1 {
        fill: #eee;
      }

      .cls-2 {
        fill: #1f201b;
      }

      .cls-3 {
        fill: #474745;
      }
    </style>
  </defs>
  <g id="Reader">
    <g>
      <circle class="cls-2" cx="110.98" cy="56.36" r="40.16"/>
      <path class="cls-1" d="M50.08,344.3l-8.32-8.65,30.29-29.15c18.27-17.58,28.6-41.21,29.09-66.56l4.2-217.61,12,.23-4.2,217.61c-.55,28.55-12.19,55.18-32.76,74.98l-30.29,29.15Z"/>
      <path class="cls-1" d="M21.69,382.96c-2.59,1.36-5.78.8-7.76-1.36l-12.24-13.32c-2.28-2.49-2.26-6.36.06-8.81l29.77-31.56c.49-.52,1.07-.96,1.71-1.29,2.57-1.34,5.74-.8,7.72,1.31l17.01,18.2c1.24,1.33,1.87,3.13,1.72,4.94s-1.05,3.49-2.49,4.6l-34.54,26.69c-.3.23-.62.44-.96.61Z"/>
      <path class="cls-3" d="M38.76,329.98l17.01,18.2c1.4,1.49,1.2,3.86-.41,5.11l-34.54,26.69c-1.42,1.1-3.45.93-4.67-.4l-12.24-13.32c-1.23-1.34-1.22-3.4.03-4.72l29.77-31.56c1.37-1.46,3.69-1.45,5.05.01Z"/>
      <path class="cls-1" d="M47.5,361.44c2.9,3.2,5.08,7.38,6.76,12.22.34.97,1.47,1.4,2.38.93h0c.5-.26.84-.75.91-1.31.7-6.18-.14-12.23-2.17-18.19l-7.87,6.34Z"/>
      <path class="cls-1" d="M41.66,356.67c-4.6,2.41-10.3.63-12.71-3.97s-.63-10.3,3.97-12.71,10.3-.63,12.71,3.97c2.41,4.6.63,10.3-3.97,12.71ZM34.28,342.56c-3.18,1.67-4.41,5.61-2.75,8.79s5.61,4.41,8.79,2.75,4.41-5.61,2.75-8.79-5.61-4.41-8.79-2.75Z"/>
      <circle class="cls-1" cx="10.85" cy="365.11" r="1.99"/>
      <circle class="cls-1" cx="18.95" cy="372.12" r="1.93"/>
      <circle class="cls-3" cx="110.98" cy="56.36" r="18.56"/>
      <rect class="cls-3" x="98.28" y="-8.92" width="26.64" height="44.66" rx="6.32" ry="6.32" transform="translate(97.53 124.93) rotate(-89.66)"/>
    </g>
  </g>
</svg>