<?xml version="1.0" encoding="UTF-8"?>
<svg id="Layer_2" data-name="Layer 2" xmlns="http://www.w3.org/2000/svg" viewBox="0 0 601.95 413.74">
  <defs>
    <style>
      .cls-1 {
        fill: #8d4e1b;
      }

      .cls-2 {
        fill: #703000;
      }

      .cls-3 {
        fill: #c1272d;
      }

      .cls-4 {
        fill: #eee;
      }

      .cls-5 {
        fill: #1f201b;
      }

      .cls-6 {
        fill: #474745;
      }
    </style>
  </defs>
  <g id="Box">
    <g>
      <path class="cls-2" d="M601.95,362.19v17.31c0,15.99-12.97,28.96-28.96,28.96H28.97c-16,0-28.97-12.97-28.97-28.96v-17.31c0,16,12.97,28.97,28.97,28.97h544.02c15.99,0,28.96-12.97,28.96-28.97Z"/>
      <path class="cls-1" d="M601.95,28.96v333.23c0,16-12.97,28.97-28.96,28.97H28.97c-16,0-28.97-12.97-28.97-28.97V28.96C0,12.96,12.97,0,28.97,0h544.02c15.99,0,28.96,12.96,28.96,28.96Z"/>
      <circle class="cls-4" cx="439.48" cy="75.73" r="22.57"/>
      <circle class="cls-6" cx="439.48" cy="75.73" r="20.29"/>
      <circle class="cls-4" cx="552.37" cy="234.6" r="13.07"/>
      <circle class="cls-6" cx="552.37" cy="234.6" r="10.21"/>
      <circle class="cls-4" cx="552.37" cy="273.43" r="13.07"/>
      <circle class="cls-6" cx="552.37" cy="273.43" r="10.21"/>
      <circle class="cls-4" cx="552.37" cy="312.27" r="13.07"/>
      <circle class="cls-6" cx="552.37" cy="312.27" r="10.21"/>
      <rect class="cls-5" x="474.1" y="398.18" width="38.31" height="15.56"/>
      <rect class="cls-4" x="500.08" y="203.48" width="24.15" height="140.14"/>
      <rect class="cls-5" x="505.81" y="208.89" width="12.7" height="129.31" rx="6.35" ry="6.35"/>
      <rect class="cls-4" x="390.54" y="337.13" width="17.53" height="33.48"/>
      <rect class="cls-6" x="393.78" y="340.61" width="11.06" height="26.52"/>
      <rect class="cls-4" x="417.48" y="337.13" width="17.53" height="33.48"/>
      <rect class="cls-3" x="420.72" y="340.61" width="11.06" height="26.52"/>
      <rect class="cls-6" x="502.26" y="278.11" width="19.78" height="14.83" rx="7.42" ry="7.42"/>
      <path class="cls-5" d="M564.52,22.27c8.25,0,14.96,6.71,14.96,14.96v129.06c0,8.25-6.71,14.96-14.96,14.96h-254.9c-8.25,0-14.96-6.71-14.96-14.96V37.23c0-8.25,6.71-14.96,14.96-14.96h254.9M564.52,21.27h-254.9c-8.81,0-15.96,7.15-15.96,15.96v129.06c0,8.81,7.15,15.96,15.96,15.96h254.9c8.81,0,15.96-7.15,15.96-15.96V37.23c0-8.81-7.15-15.96-15.96-15.96h0Z"/>
      <path class="cls-5" d="M439.19,328.37c4.43,0,8.04,3.61,8.04,8.04v35.17c0,4.43-3.61,8.04-8.04,8.04h-54.22c-4.43,0-8.04-3.61-8.04-8.04v-35.17c0-4.43,3.61-8.04,8.04-8.04h54.22M439.19,327.37h-54.22c-4.99,0-9.04,4.05-9.04,9.04v35.17c0,4.99,4.05,9.04,9.04,9.04h54.22c4.99,0,9.04-4.05,9.04-9.04v-35.17c0-4.99-4.05-9.04-9.04-9.04h0Z"/>
    </g>
  </g>
</svg>