<?xml version="1.0" encoding="UTF-8"?>
<svg id="Layer_2" data-name="Layer 2" xmlns="http://www.w3.org/2000/svg" xmlns:xlink="http://www.w3.org/1999/xlink" viewBox="0 0 435.9 435.9">
  <defs>
    <style>
      .cls-1 {
        font-size: 7.79px;
      }

      .cls-1, .cls-2, .cls-3, .cls-4, .cls-5 {
        font-family: FuturaNewBook-Reg, 'Futura New';
      }

      .cls-1, .cls-2, .cls-3, .cls-4, .cls-5, .cls-6 {
        fill: #1f201b;
      }

      .cls-7 {
        letter-spacing: 0em;
      }

      .cls-8 {
        letter-spacing: -.04em;
      }

      .cls-2 {
        font-size: 6px;
      }

      .cls-9 {
        letter-spacing: -.05em;
      }

      .cls-10 {
        fill: #aaa971;
      }

      .cls-11 {
        letter-spacing: 0em;
      }

      .cls-12 {
        letter-spacing: -.02em;
      }

      .cls-13 {
        letter-spacing: -.05em;
      }

      .cls-3 {
        font-size: 5.01px;
      }

      .cls-14 {
        letter-spacing: 0em;
      }

      .cls-4 {
        font-size: 6.34px;
      }

      .cls-5 {
        font-size: 7.65px;
      }

      .cls-15 {
        letter-spacing: -.04em;
      }

      .cls-16 {
        letter-spacing: 0em;
      }

      .cls-17 {
        letter-spacing: -.08em;
      }

      .cls-18 {
        letter-spacing: -.04em;
      }

      .cls-19 {
        letter-spacing: -.01em;
      }

      .cls-20 {
        letter-spacing: -.11em;
      }

      .cls-21 {
        fill: url(#linear-gradient);
      }

      .cls-22 {
        fill: #474745;
      }

      .cls-23 {
        fill: #f2573b;
      }
    </style>
    <linearGradient id="linear-gradient" x1="4.04" y1="217.95" x2="431.85" y2="217.95" gradientUnits="userSpaceOnUse">
      <stop offset="0" stop-color="#000"/>
      <stop offset=".5" stop-color="#404040"/>
      <stop offset="1" stop-color="#000"/>
    </linearGradient>
  </defs>
  <g id="Layer_4" data-name="Layer 4">
    <g>
      <circle cx="217.95" cy="217.95" r="217.95"/>
      <circle class="cls-21" cx="217.95" cy="217.95" r="213.9"/>
      <circle class="cls-23" cx="217.95" cy="217.95" r="78.86"/>
      <path class="cls-10" d="M217.95,195.71c12.26,0,22.23,9.97,22.23,22.23s-9.97,22.23-22.23,22.23-22.23-9.97-22.23-22.23,9.97-22.23,22.23-22.23M217.95,195.21c-12.56,0-22.73,10.18-22.73,22.73s10.18,22.73,22.73,22.73,22.73-10.18,22.73-22.73-10.18-22.73-22.73-22.73h0Z"/>
      <path class="cls-10" d="M217.95,202.99c8.25,0,14.96,6.71,14.96,14.96s-6.71,14.96-14.96,14.96-14.96-6.71-14.96-14.96,6.71-14.96,14.96-14.96M217.95,202.49c-8.54,0-15.46,6.92-15.46,15.46s6.92,15.46,15.46,15.46,15.46-6.92,15.46-15.46-6.92-15.46-15.46-15.46h0Z"/>
      <circle class="cls-6" cx="217.95" cy="217.95" r="6.91"/>
      <circle class="cls-22" cx="217.95" cy="217.95" r="4.9"/>
      <g>
        <path d="M217.95,11.7c27.84,0,54.85,5.45,80.28,16.21,24.56,10.39,46.62,25.26,65.56,44.2,18.94,18.94,33.81,41,44.2,65.56,10.75,25.43,16.21,52.44,16.21,80.28s-5.45,54.85-16.21,80.28c-10.39,24.56-25.26,46.62-44.2,65.56-18.94,18.94-41,33.81-65.56,44.2-25.43,10.75-52.44,16.21-80.28,16.21s-54.85-5.45-80.28-16.21c-24.56-10.39-46.62-25.26-65.56-44.2-18.94-18.94-33.81-41-44.2-65.56-10.75-25.43-16.21-52.44-16.21-80.28s5.45-54.85,16.21-80.28c10.39-24.56,25.26-46.62,44.2-65.56,18.94-18.94,41-33.81,65.56-44.2,25.43-10.75,52.44-16.21,80.28-16.21M217.95,10.7C103.49,10.7,10.7,103.49,10.7,217.95s92.79,207.25,207.25,207.25,207.25-92.79,207.25-207.25S332.41,10.7,217.95,10.7h0Z"/>
        <path d="M217.95,24.59c26.13,0,51.46,5.13,75.26,15.2,23.03,9.74,43.71,23.7,61.46,41.44,17.74,17.74,31.7,38.43,41.44,61.46,10.07,23.8,15.2,49.13,15.2,75.26s-5.13,51.46-15.2,75.26c-9.74,23.03-23.69,43.71-41.44,61.46-17.74,17.74-38.43,31.7-61.46,41.44-23.8,10.07-49.13,15.2-75.26,15.2s-51.46-5.13-75.26-15.2c-23.03-9.74-43.71-23.69-61.46-41.44-17.74-17.74-31.7-38.43-41.44-61.46-10.07-23.8-15.2-49.13-15.2-75.26s5.13-51.46,15.2-75.26c9.74-23.03,23.7-43.71,41.44-61.46,17.74-17.74,38.43-31.7,61.46-41.44,23.8-10.07,49.13-15.2,75.26-15.2M217.95,23.59C110.61,23.59,23.59,110.61,23.59,217.95s87.02,194.36,194.36,194.36,194.36-87.02,194.36-194.36S325.29,23.59,217.95,23.59h0Z"/>
        <path d="M217.95,37.48c24.42,0,48.07,4.8,70.24,14.19,21.5,9.1,40.81,22.13,57.36,38.68,16.55,16.55,29.58,35.86,38.68,57.36,9.38,22.18,14.19,45.82,14.19,70.24s-4.8,48.07-14.19,70.24c-9.1,21.5-22.13,40.81-38.68,57.36-16.55,16.55-35.86,29.58-57.36,38.68-22.18,9.38-45.82,14.19-70.24,14.19s-48.07-4.8-70.24-14.19c-21.5-9.1-40.81-22.13-57.36-38.68-16.55-16.55-29.58-35.86-38.68-57.36-9.38-22.18-14.19-45.82-14.19-70.24s4.8-48.07,14.19-70.24c9.1-21.5,22.13-40.81,38.68-57.36,16.55-16.55,35.86-29.58,57.36-38.68,22.18-9.38,45.82-14.19,70.24-14.19M217.95,36.48c-100.22,0-181.46,81.24-181.46,181.46s81.24,181.46,181.46,181.46,181.46-81.24,181.46-181.46S318.17,36.48,217.95,36.48h0Z"/>
        <path d="M217.95,50.38c22.71,0,44.68,4.48,65.23,13.18,19.97,8.45,37.91,20.57,53.26,35.91,15.35,15.35,27.46,33.29,35.91,53.26,8.7,20.55,13.18,42.51,13.18,65.23s-4.48,44.68-13.18,65.23c-8.45,19.97-20.57,37.91-35.91,53.26-15.35,15.35-33.29,27.46-53.26,35.91-20.55,8.7-42.51,13.18-65.23,13.18s-44.68-4.48-65.23-13.18c-19.97-8.45-37.91-20.57-53.26-35.91-15.35-15.35-27.46-33.29-35.91-53.26-8.7-20.55-13.18-42.51-13.18-65.23s4.48-44.68,13.18-65.23c8.45-19.97,20.57-37.91,35.91-53.26,15.35-15.35,33.29-27.46,53.26-35.91,20.55-8.7,42.51-13.18,65.23-13.18M217.95,49.38c-93.1,0-168.57,75.47-168.57,168.57s75.47,168.57,168.57,168.57,168.57-75.47,168.57-168.57S311.05,49.38,217.95,49.38h0Z"/>
        <path d="M217.95,63.27c21,0,41.28,4.16,60.21,12.17,18.43,7.8,35,19,49.15,33.15,14.15,14.15,25.35,30.72,33.15,49.15,8.01,18.93,12.17,39.21,12.17,60.21s-4.16,41.28-12.17,60.21c-7.8,18.43-19,35-33.15,49.15-14.15,14.15-30.72,25.35-49.15,33.15-18.93,8.01-39.21,12.17-60.21,12.17s-41.28-4.16-60.21-12.17c-18.43-7.8-35-19-49.15-33.15-14.15-14.15-25.35-30.72-33.15-49.15-8.01-18.93-12.17-39.21-12.17-60.21s4.16-41.28,12.17-60.21c7.8-18.43,19-35,33.15-49.15,14.15-14.15,30.72-25.35,49.15-33.15,18.93-8.01,39.21-12.17,60.21-12.17M217.95,62.27c-85.98,0-155.68,69.7-155.68,155.68s69.7,155.68,155.68,155.68,155.68-69.7,155.68-155.68S303.93,62.27,217.95,62.27h0Z"/>
        <path d="M217.95,76.16c19.29,0,37.89,3.83,55.19,11.16,16.9,7.16,32.1,17.44,45.05,30.39,12.95,12.95,23.23,28.15,30.39,45.05,7.32,17.3,11.16,35.9,11.16,55.19s-3.83,37.89-11.16,55.19c-7.16,16.9-17.44,32.1-30.39,45.05-12.95,12.95-28.15,23.23-45.05,30.39-17.3,7.32-35.9,11.16-55.19,11.16s-37.89-3.83-55.19-11.16c-16.9-7.16-32.1-17.44-45.05-30.39-12.95-12.95-23.23-28.15-30.39-45.05-7.32-17.3-11.16-35.9-11.16-55.19s3.83-37.89,11.16-55.19c7.16-16.9,17.44-32.1,30.39-45.05,12.95-12.95,28.15-23.23,45.05-30.39,17.3-7.32,35.9-11.16,55.19-11.16M217.95,75.16c-78.86,0-142.79,63.93-142.79,142.79s63.93,142.79,142.79,142.79,142.79-63.93,142.79-142.79-63.93-142.79-142.79-142.79h0Z"/>
        <path d="M217.95,89.05c17.58,0,34.5,3.51,50.17,10.15,15.37,6.51,29.2,15.87,40.95,27.63,11.75,11.75,21.12,25.58,27.63,40.95,6.64,15.67,10.15,32.59,10.15,50.17s-3.51,34.5-10.15,50.17c-6.51,15.37-15.87,29.2-27.63,40.95-11.75,11.75-25.58,21.12-40.95,27.63-15.67,6.64-32.59,10.15-50.17,10.15s-34.5-3.51-50.17-10.15c-15.37-6.51-29.2-15.87-40.95-27.63-11.75-11.75-21.12-25.58-27.63-40.95-6.64-15.67-10.15-32.59-10.15-50.17s3.51-34.5,10.15-50.17c6.51-15.37,15.87-29.2,27.63-40.95,11.75-11.75,25.58-21.12,40.95-27.63,15.67-6.64,32.59-10.15,50.17-10.15M217.95,88.05c-71.74,0-129.9,58.16-129.9,129.9s58.16,129.9,129.9,129.9,129.9-58.16,129.9-129.9-58.16-129.9-129.9-129.9h0Z"/>
        <path d="M217.95,101.94c15.87,0,31.1,3.18,45.15,9.14,13.84,5.86,26.3,14.31,36.85,24.87,10.56,10.56,19,23.01,24.86,36.85,5.95,14.05,9.14,29.28,9.14,45.15s-3.18,31.1-9.14,45.15c-5.86,13.84-14.31,26.3-24.87,36.85-10.56,10.56-23.01,19-36.85,24.86-14.05,5.95-29.28,9.14-45.15,9.14s-31.1-3.18-45.15-9.14c-13.84-5.86-26.3-14.31-36.85-24.87-10.56-10.56-19-23.01-24.86-36.85-5.95-14.05-9.14-29.28-9.14-45.15s3.18-31.1,9.14-45.15c5.86-13.84,14.31-26.3,24.87-36.85,10.56-10.56,23.01-19,36.85-24.86,14.05-5.95,29.28-9.14,45.15-9.14M217.95,100.94c-64.62,0-117,52.38-117,117s52.38,117,117,117,117-52.38,117-117-52.38-117-117-117h0Z"/>
        <path d="M217.95,114.84c14.16,0,27.71,2.86,40.14,8.13,12.31,5.22,23.39,12.74,32.75,22.1,9.36,9.36,16.88,20.44,22.1,32.75,5.27,12.42,8.13,25.98,8.13,40.13s-2.86,27.71-8.13,40.14c-5.22,12.31-12.74,23.39-22.1,32.75-9.36,9.36-20.44,16.88-32.75,22.1-12.42,5.27-25.98,8.13-40.13,8.13s-27.71-2.86-40.14-8.13c-12.31-5.22-23.39-12.74-32.75-22.1-9.36-9.36-16.88-20.44-22.1-32.75-5.27-12.42-8.13-25.98-8.13-40.13s2.86-27.71,8.13-40.14c5.22-12.31,12.74-23.39,22.1-32.75,9.36-9.36,20.44-16.88,32.75-22.1,12.42-5.27,25.98-8.13,40.13-8.13M217.95,113.84c-57.5,0-104.11,46.61-104.11,104.11s46.61,104.11,104.11,104.11,104.11-46.61,104.11-104.11-46.61-104.11-104.11-104.11h0Z"/>
        <path d="M217.95,127.73c49.75,0,90.22,40.47,90.22,90.22s-40.47,90.22-90.22,90.22-90.22-40.47-90.22-90.22,40.47-90.22,90.22-90.22M217.95,126.73c-50.38,0-91.22,40.84-91.22,91.22s40.84,91.22,91.22,91.22,91.22-40.84,91.22-91.22-40.84-91.22-91.22-91.22h0Z"/>
      </g>
      <g>
        <polygon class="cls-6" points="170.89 184.89 162.37 172.08 162.78 171.78 175.33 176.37 172.25 163.23 172.58 162.97 184.1 173.1 182.71 174.42 174.05 166.68 177.24 179.16 165.38 174.61 172.06 183.82 170.89 184.89"/>
        <polygon class="cls-6" points="186.67 172.15 179.55 158.64 186.67 155.08 187.3 156.14 181.83 158.75 184.47 163.61 189.24 161.14 189.72 162.13 184.91 164.48 187.96 170.35 193.17 167.34 193.65 168.55 186.67 172.15"/>
        <polygon class="cls-6" points="194.51 167.89 196.8 151.52 197.87 151.19 208 164.18 206.16 164.7 197.91 153.72 197.58 153.76 196.07 167.52 194.51 167.89"/>
        <path class="cls-6" d="M239.82,166.71l-1.98-15.19-.99-.18-9.65,11.97-.84-.26-.52,1.98c.26-.25,1.32-.66,2.06-.4.73.25,10.05,2.67,10.94,3.01.88.33,1.28,1.35,1.28,1.35l.55-1.98-.84-.29ZM228.56,163.63l7.89-10.02,1.43,12.73-9.32-2.71Z"/>
        <polygon class="cls-6" points="249.59 155.7 241.66 168.77 242.28 169.18 257.88 163.93 251.61 174.61 253.26 175.64 261.08 162.44 260.27 161.98 245.29 166.86 251.37 156.81 249.59 155.7"/>
        <path class="cls-6" d="M269.08,169.65c-1.54-1.43-3.64-1.8-5.36.48-1.73,2.28.8,5.73.8,5.73l-9.61,1.06,2.05,1.77,9.04-1.25.73.62-5.36,5.36,1.43,1.46,10.72-10.9s-2.9-2.91-4.44-4.34ZM267.1,177.51s-1.73-1.83-2.24-2.67c-.52-.84-.48-3.02.99-3.96,1.47-.96,2.75-.66,3.6.18s2.09,2.13,2.09,2.13l-4.44,4.33Z"/>
        <path class="cls-6" d="M217.93,148.34c-5.68-.49-9.02,3.5-9.19,7.73-.2,4.65,2.29,7.63,7.53,8.21s8.41-2.98,9.16-7.24c.76-4.26-1.83-8.22-7.5-8.71ZM223.37,156.98c-.57,3.83-2.95,7.04-6.89,6.5-3.93-.53-5.8-3.21-5.66-7.39.14-3.8,2.65-7.39,6.91-6.95,4.26.44,6.21,4,5.64,7.83Z"/>
      </g>
      <rect class="cls-6" x="148.33" y="199.04" width="139.23" height="1.61"/>
      <path class="cls-6" d="M232.34,171.02l-.88,1.97h.71s.92.14.92.14l-1.99.67-.32,1.09c-.42-.17-.87-.4-1.31-.47l-2.55.88,1.63-1.56-1.9-.99-7.05,8.24c.76-.09,1.55.18,2.28,0l6.84-5.7c.15-.11.51-.33.41,0l-4.86,5.89c2.31.23,4.75.42,6.97,1.13,1.02.33,3.03,1.12,2.55,2.53-.37,1.1-3.21,1.82-4.25,2.06-3.52.8-7.26.93-10.86,1.01l-2.89,3.41c-.15.07-.82-.02-1.05-.03-.1,0-.2.05-.17-.1l2.64-3.29c-.35-.02-.7.02-1.05,0-2.27-.11-4.6-.3-6.83-.77-.4-.08-1.12-.37-1.45-.39s-.8.13-1.15.14c-1.31.06-4.02-.23-4.61-1.64-.7-1.67,2.19-2.54,3.35-2.88,3.82-1.11,7.98-1.25,11.92-1.44,3.41-2.85,6.44-6.12,9.61-9.24l.27-.13c.06.05.1.07.09.16-.02.23-.73.94-.67,1,1.06-.05,2.17.21,3.21,0l2.42-1.69ZM223.66,179.97c-.06-.05-.31.15-.37.2-.31.25-.66.58-.92.88.11-.03.23.05.32.05.17,0,.83-.93.97-1.14ZM218.98,180.04c-.13-.11-.88.77-.95.95.42-.06.69-.64.95-.95ZM216.81,181.39c-2.5.1-5.01.21-7.47.63-1.37.24-4.29.83-5.14,1.98-1.12,1.5,1.54,2.32,2.64,2.27-2.01-1.54.54-2.45,1.88-2.83,1.63-.45,3.46-.73,5.14-.96.52-.07,1.28-.06,1.74-.16.27-.06.96-.73,1.2-.93ZM217.9,181.39c-.15-.01-.24-.01-.38.06-.04.02-.63.56-.68.61-.06.07-.13.09-.1.2.18-.11.4-.02.58-.13s.4-.59.57-.75ZM218.64,182.21h1.73c.06,0,.76-.63.85-.75-.36.11-1.83-.17-2.02-.05-.04.02-.6.77-.56.8ZM222.37,181.53c-.68-.14-1.05.32-1.49.74.78.09,1.16-.01,1.49-.74ZM219.05,187.49c2.44-.06,4.93-.17,7.34-.56,1.32-.21,4.42-.81,5.24-1.88,1.02-1.33-1.43-2.18-2.36-2.46-1.74-.52-3.57-.71-5.36-.92l-.59.67c1.69.28,4.05.23,5.54,1.14,1.85,1.13-.82,1.95-1.74,2.22-2.41.69-5.05.93-7.55,1.12l-.52.68ZM219.59,182.68h-1.32c-.06,0-.33.44-.37.54h1.12s.65-.47.58-.54ZM216.88,182.75c-.67-.1-1.09.09-1.49.61.67-.19,1.2.21,1.49-.61ZM221.42,182.75h-1.19s-.59.44-.64.54c.38-.1,1.1.18,1.39,0,.15-.09.31-.41.44-.55ZM219.93,186.41c2.01-.17,4.12-.31,6.05-.9,1.4-.43,3.32-1.36.75-2.13-1.22-.37-2.57-.43-3.83-.56l-.52.68c.88.12,1.85.19,2.7.46,1.05.33,1.01.64,0,.99-1.38.47-2.98.41-4.42.6l-.72.87ZM214.84,182.88c-1.83.24-3.78.4-5.54.93-.74.22-2.5.78-1.61,1.85.62.75,1.16.18,1.94.06.08-.08-.51-.52-.14-.98.33-.41,1.65-.76,2.17-.88.69-.16,1.8-.21,2.38-.4.22-.08.62-.41.81-.58ZM220.61,183.7h-1.39c-.44,0-.8.41-1.19.64-1.14.67-2.92,1.63-1.69-.71-.06-.05-1.43.1-1.58.15-.47.16-1.67,1.05-2.24,1.35-.39.2-.79.38-1.2.53l.77.35c1.87.29,4.24.65,6.12.47.11-.01.22,0,.31-.1l.6-.85c-.15,0-.28.06-.44.07-.55.02-4.58.05-4.72-.14.07-.18.1-.25.3-.27,1.25-.15,2.9.07,4.21,0,.32-.02.66-.11,1-.08.11-.03.74-.82.86-.97.05-.06.32-.39.27-.44ZM218.37,183.63c-.4.03-.92-.19-.81.41.03.03.36-.11.43-.14.1-.05.33-.16.38-.26ZM221.08,185.05c.8-.01,1.69-.08,2.46-.29.87-.23.87-.46,0-.71-.25-.07-1.19-.26-1.4-.22s-.87,1-1.06,1.22ZM213.08,184.04c-.42.07-2.11.47-2.27.81-.06.13-.03.27-.03.41l1.49-.71.81-.51ZM218.1,186.82c-.73-.02-1.47.03-2.21,0-1.22-.05-2.71-.15-3.91-.36-.4-.07-1.31-.39-1.58-.39-.31,0-.82.36-1.19.34-.03.17.02.11.1.14.36.16,1.11.3,1.52.38,2.18.43,4.47.51,6.69.56.12.01.61-.65.58-.68Z"/>
      <text class="cls-4" transform="translate(146.88 216.22)"><tspan class="cls-15" x="0" y="0">S</tspan><tspan x="3.02" y="0" xml:space="preserve">TEREO  OO  </tspan><tspan class="cls-13" x="36.01" y="0">3</tspan><tspan x="39.29" y="0">3</tspan></text>
      <text class="cls-1" transform="translate(149.99 225.92)"><tspan x="0" y="0">C60-</tspan><tspan class="cls-20" x="16.37" y="0">1</tspan><tspan class="cls-9" x="19.93" y="0">7</tspan><tspan class="cls-8" x="23.96" y="0">29</tspan><tspan x="32.23" y="0">7</tspan></text>
      <text class="cls-4" transform="translate(254.94 216.21)"><tspan x="0" y="0">GR.1 </tspan><tspan class="cls-18" x="14.51" y="0">9</tspan><tspan x="17.87" y="0">58</tspan></text>
      <text class="cls-3" transform="translate(247.8 223.61)"><tspan x="0" y="0">Made in A</tspan><tspan class="cls-19" x="20.85" y="0">z</tspan><tspan class="cls-16" x="23.1" y="0">erbaijan</tspan></text>
      <text class="cls-5" transform="translate(177.35 254.63)"><tspan x="0" y="0">A</tspan><tspan class="cls-11" x="4.76" y="0">z</tspan><tspan x="8.2" y="0">erbaijan National Songs</tspan></text>
      <text class="cls-2" transform="translate(209.5 266.49)"><tspan x="0" y="0">Nalbaki</tspan><tspan x="-.5" y="7.2">G</tspan><tspan class="cls-14" x="4.04" y="7.2">az</tspan><tspan class="cls-7" x="9.84" y="7.2">akhi</tspan><tspan class="cls-17" x="-1.94" y="14.4">T</tspan><tspan class="cls-7" x=".11" y="14.4">a</tspan><tspan class="cls-12" x="3.27" y="14.4">r</tspan><tspan x="4.92" y="14.4">akama</tspan></text>
    </g>
  </g>
</svg>